<svg width="151" height="94" viewBox="0 0 151 94" fill="none" xmlns="http://www.w3.org/2000/svg">
<path d="M12.4995 79.7438C10.9255 79.7438 9.50216 79.4591 8.22954 78.8898C6.99041 78.2869 6.00245 77.4664 5.26567 76.4282C4.56238 75.3566 4.21073 74.1007 4.21073 72.6606C4.21073 69.9144 5.55034 67.8213 8.22954 66.3812C10.9422 64.9411 15.3797 63.9867 21.5418 63.5178C21.5083 62.5131 21.2739 61.5921 20.8385 60.7549C20.4367 59.9176 19.7836 59.2646 18.8794 58.7957C18.0086 58.2934 16.8532 58.0422 15.4132 58.0422C14.4085 58.0422 13.4205 58.1762 12.4493 58.4441C11.4781 58.6785 10.5404 59.0134 9.63612 59.4488C8.73189 59.8841 7.8779 60.3363 7.07413 60.8051L5.21544 57.4394C6.11967 56.9035 7.15786 56.3677 8.33001 55.8319C9.50216 55.2625 10.758 54.8104 12.0976 54.4755C13.4707 54.1406 14.8606 53.9732 16.2672 53.9732C18.5445 53.9732 20.4367 54.3918 21.9437 55.229C23.4508 56.0663 24.5894 57.2552 25.3597 58.7957C26.13 60.3363 26.5151 62.195 26.5151 64.3718V79.1409H22.4461L22.0442 75.9761H21.8935C20.5874 76.9808 19.1138 77.8683 17.4728 78.6386C15.8318 79.3754 14.174 79.7438 12.4995 79.7438ZM13.9061 75.7752C15.2122 75.7752 16.5016 75.4905 17.7742 74.9212C19.0468 74.3519 20.3027 73.5481 21.5418 72.5099V66.6826C18.3268 66.9171 15.7983 67.2855 13.9563 67.7878C12.1479 68.2902 10.8753 68.9265 10.1385 69.6967C9.40169 70.4335 9.0333 71.3043 9.0333 72.309C9.0333 73.1127 9.25099 73.7825 9.68636 74.3184C10.1552 74.8207 10.758 75.1891 11.4948 75.4235C12.2316 75.658 13.0354 75.7752 13.9061 75.7752ZM45.8862 79.1409V58.5948H34.8847V54.576H50.8595V79.1409H45.8862ZM47.9459 49.8036C46.8742 49.8036 45.9867 49.4855 45.2834 48.8492C44.5801 48.1794 44.2285 47.3086 44.2285 46.237C44.2285 45.1653 44.5801 44.3113 45.2834 43.675C45.9867 43.0052 46.8742 42.6703 47.9459 42.6703C49.0175 42.6703 49.905 43.0052 50.6083 43.675C51.3116 44.3113 51.6633 45.1653 51.6633 46.237C51.6633 47.3086 51.3116 48.1794 50.6083 48.8492C49.905 49.4855 49.0175 49.8036 47.9459 49.8036ZM76.0077 79.7438C73.6968 79.7438 71.4865 79.3586 69.3766 78.5883C67.2668 77.8181 65.475 76.9306 64.0015 75.9259L66.2118 72.7108C67.6519 73.7155 69.2092 74.5026 70.8837 75.0719C72.5917 75.6412 74.5173 75.9259 76.6607 75.9259C78.5362 75.9259 79.926 75.591 80.8302 74.9212C81.7679 74.2514 82.2368 73.4644 82.2368 72.5601C82.2368 72.1248 82.1363 71.7229 81.9354 71.3545C81.7679 70.9861 81.433 70.6512 80.9307 70.3498C80.4618 70.0149 79.7418 69.6967 78.7706 69.3953C77.8329 69.0939 76.5937 68.7758 75.0532 68.4409C71.8047 67.7711 69.3934 66.8501 67.8193 65.6779C66.2788 64.5058 65.5085 62.9987 65.5085 61.1568C65.5085 59.0804 66.396 57.3724 68.171 56.0328C69.9794 54.6597 72.5917 53.9732 76.0077 53.9732C77.9501 53.9732 79.792 54.3081 81.5335 54.9779C83.3085 55.6142 84.8155 56.3509 86.0547 57.1882L83.7439 60.3028C82.5717 59.5325 81.2823 58.9297 79.8758 58.4943C78.5027 58.0255 77.0626 57.791 75.5555 57.791C74.3164 57.791 73.3285 57.9417 72.5917 58.2431C71.8549 58.5111 71.319 58.8794 70.9841 59.3483C70.6492 59.8172 70.4818 60.3363 70.4818 60.9056C70.4818 61.8433 71.0009 62.5801 72.0391 63.1159C73.1108 63.6183 74.8355 64.1206 77.2133 64.623C79.8925 65.1923 81.9521 65.8286 83.3922 66.5319C84.8658 67.2352 85.8705 68.0557 86.4063 68.9934C86.9756 69.8977 87.2603 70.9861 87.2603 72.2587C87.2603 73.6318 86.8249 74.8877 85.9542 76.0264C85.0835 77.165 83.8108 78.0692 82.1363 78.739C80.4953 79.4089 78.4524 79.7438 76.0077 79.7438ZM95.1778 79.1409V43.5243H100.151V52.9685L99.8497 58.4943H100C101.173 57.2552 102.479 56.2002 103.919 55.3295C105.359 54.4253 107.017 53.9732 108.892 53.9732C111.772 53.9732 113.882 54.8439 115.222 56.5854C116.561 58.2934 117.231 60.7381 117.231 63.9197V79.1409H112.258V64.5728C112.258 62.4294 111.856 60.8554 111.052 59.8507C110.282 58.8125 108.976 58.2934 107.134 58.2934C105.828 58.2934 104.656 58.6283 103.617 59.2981C102.579 59.9344 101.424 60.9056 100.151 62.2117V79.1409H95.1778ZM132.985 79.7438C131.411 79.7438 129.988 79.4591 128.715 78.8898C127.476 78.2869 126.488 77.4664 125.751 76.4282C125.048 75.3566 124.696 74.1007 124.696 72.6606C124.696 69.9144 126.036 67.8213 128.715 66.3812C131.428 64.9411 135.865 63.9867 142.028 63.5178C141.994 62.5131 141.76 61.5921 141.324 60.7549C140.922 59.9176 140.269 59.2646 139.365 58.7957C138.494 58.2934 137.339 58.0422 135.899 58.0422C134.894 58.0422 133.906 58.1762 132.935 58.4441C131.964 58.6785 131.026 59.0134 130.122 59.4488C129.218 59.8841 128.364 60.3363 127.56 60.8051L125.701 57.4394C126.605 56.9035 127.644 56.3677 128.816 55.8319C129.988 55.2625 131.244 54.8104 132.583 54.4755C133.956 54.1406 135.346 53.9732 136.753 53.9732C139.03 53.9732 140.922 54.3918 142.429 55.229C143.936 56.0663 145.075 57.2552 145.845 58.7957C146.616 60.3363 147.001 62.195 147.001 64.3718V79.1409H142.932L142.53 75.9761H142.379C141.073 76.9808 139.6 77.8683 137.958 78.6386C136.317 79.3754 134.66 79.7438 132.985 79.7438ZM134.392 75.7752C135.698 75.7752 136.987 75.4905 138.26 74.9212C139.533 74.3519 140.788 73.5481 142.028 72.5099V66.6826C138.812 66.9171 136.284 67.2855 134.442 67.7878C132.634 68.2902 131.361 68.9265 130.624 69.6967C129.887 70.4335 129.519 71.3043 129.519 72.309C129.519 73.1127 129.737 73.7825 130.172 74.3184C130.641 74.8207 131.244 75.1891 131.981 75.4235C132.717 75.658 133.521 75.7752 134.392 75.7752Z" fill="#4D7A80"/>
<circle cx="21.473" cy="18.9613" r="18.9613" fill="#4D7A80"/>
<circle cx="20.9313" cy="19.5029" r="14.0855" fill="#72BFCA"/>
<circle cx="70.2306" cy="18.9613" r="18.9613" fill="#4D7A80"/>
<circle cx="70.7724" cy="19.5029" r="14.0855" fill="#72BFCA"/>
<path d="M45.8518 55.2586L32.7151 39.8187H58.9886L45.8518 55.2586Z" fill="#4D7A80"/>
<ellipse cx="21.3132" cy="26.1847" rx="7.91633" ry="6.69843" fill="#ECECEC"/>
<ellipse cx="71.247" cy="26.1847" rx="7.91633" ry="6.69843" fill="#ECECEC"/>
<circle cx="18.2684" cy="26.7937" r="4.87159" fill="#4D7A80"/>
<circle cx="74.2917" cy="26.7937" r="4.87159" fill="#4D7A80"/>
</svg>
