<svg width="96" height="60" viewBox="0 0 96 60" fill="none" xmlns="http://www.w3.org/2000/svg">
<path d="M8.54578 51.3806C7.55188 51.3806 6.65314 51.2009 5.84956 50.8414C5.06713 50.4608 4.44329 49.9427 3.97806 49.2871C3.53398 48.6104 3.31194 47.8174 3.31194 46.9081C3.31194 45.174 4.15781 43.8524 5.84956 42.9431C7.56245 42.0337 10.3644 41.4311 14.2554 41.135C14.2343 40.5006 14.0863 39.9191 13.8113 39.3904C13.5576 38.8617 13.1452 38.4494 12.5743 38.1533C12.0244 37.8361 11.2949 37.6775 10.3856 37.6775C9.75115 37.6775 9.12732 37.7621 8.51406 37.9313C7.9008 38.0793 7.30869 38.2908 6.73773 38.5657C6.16676 38.8406 5.62752 39.1261 5.11999 39.4221L3.94634 37.2969C4.51731 36.9585 5.17286 36.6202 5.913 36.2818C6.65314 35.9223 7.44614 35.6368 8.29202 35.4254C9.15904 35.2139 10.0366 35.1082 10.9248 35.1082C12.3628 35.1082 13.5576 35.3725 14.5092 35.9012C15.4608 36.4298 16.1798 37.1805 16.6662 38.1533C17.1525 39.1261 17.3957 40.2997 17.3957 41.6742V51H14.8264L14.5726 49.0016H14.4775C13.6527 49.636 12.7223 50.1964 11.6861 50.6828C10.6499 51.148 9.60312 51.3806 8.54578 51.3806ZM9.43395 48.8747C10.2587 48.8747 11.0728 48.695 11.8764 48.3355C12.68 47.976 13.473 47.4685 14.2554 46.8129V43.1334C12.2253 43.2814 10.6287 43.514 9.46567 43.8312C8.32374 44.1484 7.52016 44.5502 7.05493 45.0366C6.5897 45.5018 6.35708 46.0516 6.35708 46.686C6.35708 47.1936 6.49454 47.6165 6.76945 47.9549C7.0655 48.2721 7.44614 48.5047 7.91138 48.6527C8.37661 48.8007 8.88413 48.8747 9.43395 48.8747ZM29.6274 51V38.0264H22.6806V35.4888H32.7677V51H29.6274ZM30.9279 32.4754C30.2512 32.4754 29.6908 32.2745 29.2467 31.8727C28.8026 31.4498 28.5806 30.8999 28.5806 30.2232C28.5806 29.5465 28.8026 29.0073 29.2467 28.6055C29.6908 28.1826 30.2512 27.9711 30.9279 27.9711C31.6046 27.9711 32.165 28.1826 32.6091 28.6055C33.0531 29.0073 33.2752 29.5465 33.2752 30.2232C33.2752 30.8999 33.0531 31.4498 32.6091 31.8727C32.165 32.2745 31.6046 32.4754 30.9279 32.4754ZM48.6471 51.3806C47.188 51.3806 45.7923 51.1375 44.46 50.6511C43.1278 50.1647 41.9964 49.6043 41.066 48.9699L42.4617 46.9398C43.371 47.5742 44.3543 48.0712 45.4117 48.4307C46.4901 48.7902 47.7061 48.9699 49.0595 48.9699C50.2437 48.9699 51.1213 48.7584 51.6923 48.3355C52.2844 47.9126 52.5804 47.4156 52.5804 46.8446C52.5804 46.5697 52.517 46.316 52.3901 46.0834C52.2844 45.8507 52.0729 45.6393 51.7557 45.449C51.4596 45.2375 51.005 45.0366 50.3917 44.8463C49.7996 44.6559 49.0172 44.4551 48.0444 44.2436C45.9932 43.8206 44.4706 43.2391 43.4767 42.499C42.504 41.7588 42.0176 40.8072 42.0176 39.6441C42.0176 38.333 42.578 37.2546 43.6988 36.4087C44.8407 35.5417 46.4901 35.1082 48.6471 35.1082C49.8736 35.1082 51.0367 35.3196 52.1363 35.7426C53.2571 36.1443 54.2087 36.6096 54.9912 37.1383L53.532 39.1049C52.7919 38.6185 51.9777 38.2379 51.0896 37.963C50.2226 37.6669 49.3132 37.5189 48.3616 37.5189C47.5792 37.5189 46.9554 37.6141 46.4901 37.8044C46.0249 37.9735 45.6866 38.2062 45.4751 38.5022C45.2636 38.7983 45.1579 39.1261 45.1579 39.4855C45.1579 40.0777 45.4857 40.5429 46.1412 40.8812C46.8179 41.1984 47.907 41.5156 49.4084 41.8328C51.1001 42.1923 52.4007 42.5941 53.31 43.0382C54.2405 43.4823 54.8749 44.0004 55.2132 44.5925C55.5727 45.1635 55.7525 45.8507 55.7525 46.6543C55.7525 47.5213 55.4775 48.3144 54.9277 49.0333C54.3779 49.7523 53.5743 50.3233 52.517 50.7462C51.4808 51.1692 50.1908 51.3806 48.6471 51.3806ZM60.7519 51V28.5103H63.8922V34.4737L63.7018 37.963H63.797C64.5371 37.1805 65.3619 36.5144 66.2712 35.9646C67.1805 35.3936 68.2273 35.1082 69.4115 35.1082C71.2301 35.1082 72.5624 35.658 73.4082 36.7576C74.2541 37.8361 74.6771 39.3798 74.6771 41.3888V51H71.5367V41.8011C71.5367 40.4477 71.283 39.4538 70.7755 38.8194C70.2891 38.1639 69.4644 37.8361 68.3013 37.8361C67.4766 37.8361 66.7364 38.0476 66.0809 38.4705C65.4253 38.8723 64.6957 39.4855 63.8922 40.3103V51H60.7519ZM84.6248 51.3806C83.6309 51.3806 82.7322 51.2009 81.9286 50.8414C81.1462 50.4608 80.5223 49.9427 80.0571 49.2871C79.613 48.6104 79.391 47.8174 79.391 46.9081C79.391 45.174 80.2369 43.8524 81.9286 42.9431C83.6415 42.0337 86.4434 41.4311 90.3345 41.135C90.3133 40.5006 90.1653 39.9191 89.8904 39.3904C89.6366 38.8617 89.2243 38.4494 88.6533 38.1533C88.1035 37.8361 87.3739 37.6775 86.4646 37.6775C85.8302 37.6775 85.2064 37.7621 84.5931 37.9313C83.9798 38.0793 83.3877 38.2908 82.8168 38.5657C82.2458 38.8406 81.7066 39.1261 81.199 39.4221L80.0254 37.2969C80.5963 36.9585 81.2519 36.6202 81.992 36.2818C82.7322 35.9223 83.5252 35.6368 84.3711 35.4254C85.2381 35.2139 86.1157 35.1082 87.0038 35.1082C88.4418 35.1082 89.6366 35.3725 90.5882 35.9012C91.5398 36.4298 92.2588 37.1805 92.7452 38.1533C93.2316 39.1261 93.4748 40.2997 93.4748 41.6742V51H90.9054L90.6517 49.0016H90.5565C89.7318 49.636 88.8013 50.1964 87.7651 50.6828C86.7289 51.148 85.6822 51.3806 84.6248 51.3806ZM85.513 48.8747C86.3377 48.8747 87.1519 48.695 87.9554 48.3355C88.759 47.976 89.552 47.4685 90.3345 46.8129V43.1334C88.3044 43.2814 86.7078 43.514 85.5447 43.8312C84.4028 44.1484 83.5992 44.5502 83.134 45.0366C82.6687 45.5018 82.4361 46.0516 82.4361 46.686C82.4361 47.1936 82.5736 47.6165 82.8485 47.9549C83.1445 48.2721 83.5252 48.5047 83.9904 48.6527C84.4556 48.8007 84.9632 48.8747 85.513 48.8747Z" fill="#E5FCFF"/>
<circle cx="15.6688" cy="11.9728" r="11.9728" fill="#E5FCFF"/>
<circle cx="15.3267" cy="12.3149" r="8.89411" fill="#72BFCA"/>
<circle cx="46.4561" cy="11.9728" r="11.9728" fill="#E5FCFF"/>
<circle cx="46.7982" cy="12.3149" r="8.89411" fill="#72BFCA"/>
<path d="M31.0625 34.8923L22.7675 25.143H39.3576L31.0625 34.8923Z" fill="#E5FCFF"/>
<ellipse cx="15.5677" cy="16.534" rx="4.99866" ry="4.22963" fill="#4D7A80"/>
<ellipse cx="47.0978" cy="16.534" rx="4.99866" ry="4.22963" fill="#4D7A80"/>
<circle cx="13.6452" cy="16.9186" r="3.0761" fill="#E5FCFF"/>
<circle cx="49.0204" cy="16.9186" r="3.0761" fill="#E5FCFF"/>
</svg>
